<?xml version="1.0" standalone="no"?>
<!DOCTYPE svg PUBLIC "-//W3C//DTD SVG 20010904//EN"
 "http://www.w3.org/TR/2001/REC-SVG-20010904/DTD/svg10.dtd">
<svg version="1.0" xmlns="http://www.w3.org/2000/svg"
 width="512.000000pt" height="512.000000pt" viewBox="0 0 512.000000 512.000000"
 preserveAspectRatio="xMidYMid meet">
<metadata>
Created by potrace 1.14, written by Peter Selinger 2001-2017
</metadata>
<g transform="translate(0.000000,512.000000) scale(0.100000,-0.100000)"
fill="#000000" stroke="none">
<path d="M1687 5099 c-57 -30 -79 -72 -74 -142 3 -46 9 -63 30 -84 l26 -27
-107 -46 c-444 -195 -823 -514 -1096 -925 -79 -118 -210 -379 -261 -520 -46
-124 -98 -330 -122 -477 -14 -88 -18 -171 -18 -378 0 -292 14 -406 75 -636
179 -674 632 -1244 1250 -1572 130 -69 290 -136 385 -162 44 -12 106 -30 138
-41 95 -32 347 -78 430 -79 l27 0 0 173 c0 95 5 200 11 232 22 120 86 209 191
266 60 33 67 34 168 34 87 0 113 -4 153 -22 70 -33 149 -113 183 -186 28 -60
29 -67 32 -254 l4 -193 26 6 c15 4 78 22 140 41 841 252 1489 926 1707 1778
58 228 70 329 70 620 0 271 -9 359 -56 565 -115 495 -391 961 -768 1297 l-96
86 -5 -264 c-5 -261 -5 -265 -32 -321 -73 -157 -252 -245 -415 -204 -113 27
-194 92 -251 199 l-27 52 0 320 0 320 27 52 c34 64 78 115 124 143 19 12 34
25 34 30 0 5 -53 29 -117 54 -386 151 -800 204 -1213 155 -82 -9 -312 -53
-341 -64 -12 -4 -14 3 -11 34 8 79 -70 162 -149 161 -19 -1 -51 -10 -72 -21z
m1125 -290 c100 -22 177 -72 232 -152 62 -93 68 -130 64 -449 l-3 -283 -29
-59 c-39 -79 -102 -140 -184 -179 -87 -41 -194 -43 -287 -7 -82 32 -173 122
-206 205 -23 59 -24 67 -24 350 0 279 1 292 23 347 43 106 140 192 252 222 68
18 95 19 162 5z m-1840 -1401 c75 -35 143 -99 181 -173 l32 -60 0 -315 0 -315
-27 -55 c-35 -71 -107 -143 -178 -178 -49 -24 -66 -27 -155 -27 -89 0 -106 3
-157 28 -74 36 -139 101 -175 175 l-28 57 0 315 c0 303 1 317 22 362 42 92
133 170 238 205 63 20 179 12 247 -19z m1920 0 c79 -36 142 -98 181 -177 l32
-66 0 -305 0 -305 -27 -57 c-35 -76 -104 -148 -175 -183 -82 -40 -202 -47
-286 -15 -123 46 -214 156 -236 285 -14 80 -14 474 0 550 26 144 134 260 273
296 61 16 177 4 238 -23z m-1017 -1334 c99 -30 195 -124 232 -229 16 -43 18
-88 18 -335 0 -275 -1 -287 -23 -342 -49 -122 -179 -221 -307 -234 -119 -12
-259 47 -326 139 -72 98 -73 102 -77 418 -3 271 -2 289 18 350 33 99 95 170
187 215 86 43 174 48 278 18z"/>
<path d="M2662 4593 c-18 -9 -43 -30 -55 -47 -21 -30 -22 -41 -25 -299 -3
-233 -1 -272 14 -302 40 -85 165 -115 243 -58 14 11 36 39 49 63 21 42 22 55
22 285 0 230 -1 243 -22 285 -31 61 -77 90 -142 90 -28 0 -66 -8 -84 -17z"/>
<path d="M754 3221 c-23 -10 -52 -34 -65 -52 -24 -34 -24 -38 -27 -297 -3
-229 -1 -266 14 -298 56 -118 226 -124 291 -9 22 39 23 49 23 291 0 243 -1
252 -23 294 -16 30 -37 51 -67 67 -52 28 -91 29 -146 4z"/>
<path d="M2670 3218 c-25 -13 -55 -38 -67 -57 -22 -33 -23 -40 -23 -301 0
-260 1 -268 23 -300 33 -50 70 -72 126 -78 68 -6 130 29 160 91 20 40 21 60
21 285 0 255 -3 278 -48 326 -55 58 -120 70 -192 34z"/>
<path d="M1685 1874 c-90 -47 -97 -74 -93 -380 l3 -251 28 -36 c57 -75 151
-93 225 -45 69 46 72 62 72 356 0 253 -1 260 -23 293 -49 74 -140 101 -212 63z"/>
<path d="M3679 4587 c-18 -12 -44 -38 -56 -56 -22 -33 -23 -40 -23 -296 0
-255 1 -263 23 -295 73 -108 203 -111 281 -6 20 26 21 40 21 301 0 262 -1 275
-21 302 -55 75 -155 97 -225 50z"/>
<path d="M2660 498 c-19 -13 -45 -39 -57 -57 -22 -33 -23 -42 -23 -239 l0
-205 118 8 c64 4 137 10 162 14 l45 6 3 175 c3 201 -6 242 -65 287 -51 39
-135 44 -183 11z"/>
</g>
</svg>
